# xmcd
#
# Track frame offsets:
#	150
#	10499
#	28112
#	39659
#	57060
#	75221
#	91378
#	102505
#	120457
#	132816
#
# Disc length: 1999 seconds
#
# Revision: 0
# Processed by: cddbd v1.5.2PL0 Copyright (c) Steve Scherf et al.
# Submitted via: EasyCDDAExtractor 10.2.0.1
#
DISCID=7407cd0a
DTITLE=Gary R. Smith - Holiday Inn
DYEAR=1998
DGENRE=Gospel
TTITLE0=Holiday Inn
TTITLE1=Walking Toward The Cross
TTITLE2=God Built A Ladder
TTITLE3=Are You Willing To Die
TTITLE4=Mansions Over The Hilltop
TTITLE5=Peace In The Valley
TTITLE6=One Of These Days
TTITLE7=Precious Memories
TTITLE8=I'Ve Got A Savior
TTITLE9=Where Would I Go
EXTD=
EXTT0=
EXTT1=
EXTT2=
EXTT3=
EXTT4=
EXTT5=
EXTT6=
EXTT7=
EXTT8=
EXTT9=
PLAYORDER=
